<svg width="162.000000" height="40.000000" viewBox="0 0 162 40" fill="none" xmlns="http://www.w3.org/2000/svg" xmlns:xlink="http://www.w3.org/1999/xlink">
	<desc>
			Created with Pixso.
	</desc>
	<defs>
		<filter id="filter_2103_43_dd" x="-0.703247" y="-0.228027" width="162.102600" height="39.684082" filterUnits="userSpaceOnUse" color-interpolation-filters="sRGB">
			<feFlood flood-opacity="0" result="BackgroundImageFix"/>
			<feColorMatrix in="SourceAlpha" type="matrix" values="0 0 0 0 0 0 0 0 0 0 0 0 0 0 0 0 0 0 127 0" result="hardAlpha"/>
			<feOffset dx="0" dy="4"/>
			<feGaussianBlur stdDeviation="1.33333"/>
			<feComposite in2="hardAlpha" operator="out" k2="-1" k3="1"/>
			<feColorMatrix type="matrix" values="0 0 0 0 0 0 0 0 0 0 0 0 0 0 0 0 0 0 0.25 0"/>
			<feBlend mode="normal" in2="BackgroundImageFix" result="effect_dropShadow_1"/>
			<feBlend mode="normal" in="SourceGraphic" in2="effect_dropShadow_1" result="shape"/>
		</filter>
	</defs>
	<g filter="url(#filter_2103_43_dd)">
		<path id="Japstore." d="M157.39 21.91C157.38 23.52 156.04 24.81 154.49 24.81C152.89 24.81 151.58 23.52 151.59 21.91C151.58 20.33 152.89 19.04 154.49 19.04C156.04 19.04 157.38 20.33 157.39 21.91Z" fill="#1F0F09" fill-opacity="1.000000" fill-rule="evenodd"/>
		<path id="Japstore." d="M14.55 17.01L14.55 -0.23L19.71 -0.23L19.71 17.01C19.7 21.81 16.28 24.84 11.27 24.84C6.79 24.84 3.27 22.48 3.29 17.54L8.5 17.54C8.53 19.51 9.72 20.64 11.53 20.64C13.47 20.64 14.53 19.39 14.55 17.01ZM34.63 21.92C33.73 23.65 31.96 24.84 29.21 24.84C25.68 24.84 23.06 22.98 23.06 19.32C23.06 15.17 26.36 13.94 30.02 13.6C33.25 13.29 34.52 13.13 34.52 11.94L34.52 11.87C34.52 10.34 33.51 9.46 31.76 9.46C29.92 9.46 28.81 10.37 28.46 11.6L23.71 11.21C24.42 7.84 27.34 5.71 31.78 5.71C35.92 5.71 39.66 7.57 39.66 11.99L39.66 24.5L34.78 24.5L34.78 21.92L34.63 21.92ZM48.8 31.45L43.65 31.45L43.65 5.95L48.72 5.95L48.72 9.06L48.96 9.06C49.65 7.55 51.13 5.71 54.23 5.71C58.3 5.71 61.74 8.87 61.74 15.25C61.74 21.45 58.44 24.79 54.22 24.79C51.22 24.79 49.67 23.07 48.96 21.52L48.8 21.52L48.8 31.45ZM52.59 9.8C50.09 9.8 48.69 11.91 48.69 15.22C48.69 18.53 50.11 20.7 52.59 20.7C55.12 20.7 56.49 18.46 56.49 15.22C56.49 12.01 55.14 9.8 52.59 9.8ZM27.97 19.15C27.97 20.56 29.1 21.3 30.69 21.3C32.95 21.3 34.55 19.81 34.55 17.86L34.55 15.9C33.93 16.31 32.1 16.58 30.98 16.73C29.17 16.98 27.97 17.7 27.97 19.15Z" fill="#D6BDB3" fill-opacity="1.000000" fill-rule="evenodd"/>
		<path id="Japstore." d="M90.63 5.95L94.13 5.95L94.13 9.81L90.63 9.81L90.63 18.79C90.63 20.22 91.35 20.61 92.38 20.61C92.86 20.61 93.4 20.49 93.65 20.44L94.46 24.26C93.94 24.44 93 24.7 91.67 24.75C87.94 24.9 85.47 23.11 85.49 19.47L85.49 9.81L82.95 9.81L82.95 5.95L85.49 5.95L85.49 1.51L90.63 1.51L90.63 5.95ZM123.28 24.5L118.14 24.5L118.14 5.95L123.13 5.95L123.13 9.19L123.32 9.19C124 6.89 125.7 5.69 127.77 5.69C128.3 5.69 128.94 5.76 129.39 5.87L129.39 10.43C128.91 10.28 127.93 10.15 127.22 10.15C124.95 10.15 123.28 11.72 123.28 14L123.28 24.5ZM72.69 5.71C77.37 5.71 80.13 7.82 80.59 11.24L75.88 11.53C75.62 10.33 74.56 9.35 72.78 9.35C71.18 9.35 69.93 10.08 69.94 11.19C69.93 12.09 70.57 12.67 72.29 13.05L75.65 13.73C79.25 14.46 81 16.07 81.01 18.75C81 22.4 77.56 24.86 72.75 24.86C67.84 24.86 64.82 22.67 64.33 19.12L69.4 18.86C69.71 20.37 70.93 21.15 72.77 21.15C74.56 21.15 75.76 20.37 75.78 19.27C75.76 18.34 75.03 17.75 73.41 17.42L70.19 16.78C66.57 16.05 64.82 14.26 64.83 11.48C64.82 7.9 67.95 5.71 72.69 5.71ZM114.78 15.3C114.78 21.01 111.28 24.86 105.66 24.86C100.03 24.86 96.53 21.01 96.53 15.3C96.53 9.55 100.03 5.71 105.66 5.71C111.28 5.71 114.78 9.55 114.78 15.3ZM148.02 19.18C147.3 22.63 144.2 24.86 139.61 24.86C133.9 24.86 130.42 21.18 130.42 15.31C130.42 9.59 133.95 5.71 139.42 5.71C144.31 5.71 148.13 8.82 148.13 15.12L148.13 16.53L135.5 16.53L135.5 16.55C135.5 19.32 137.13 21.02 139.71 21.02C141.42 21.02 142.74 20.28 143.27 18.87L148.02 19.18ZM139.5 9.55C137.22 9.55 135.61 11.24 135.5 13.35L143.29 13.35C143.28 11.14 141.73 9.55 139.5 9.55ZM101.76 15.26C101.76 18.49 103.08 20.88 105.68 20.88C108.23 20.88 109.56 18.49 109.56 15.26C109.56 12.02 108.23 9.63 105.68 9.63C103.08 9.63 101.76 12.02 101.76 15.26Z" fill="#FF008A" fill-opacity="1.000000" fill-rule="evenodd"/>
	</g>
</svg>
