<svg width="154.000000" height="32.000000" viewBox="0 0 154 32" fill="none" xmlns="http://www.w3.org/2000/svg" xmlns:xlink="http://www.w3.org/1999/xlink">
	<defs/>
	<path id="Japstore." d="M10.3 17.01L10.3 -0.23L15.46 -0.23L15.46 17.01C15.45 21.81 12.03 24.84 7.02 24.84C2.54 24.84 -0.98 22.48 -0.96 17.54L4.25 17.54C4.28 19.51 5.47 20.64 7.28 20.64C9.22 20.64 10.28 19.39 10.3 17.01ZM30.38 21.92C29.48 23.65 27.71 24.84 24.96 24.84C21.43 24.84 18.81 22.98 18.81 19.32C18.81 15.17 22.11 13.94 25.77 13.6C29 13.29 30.27 13.13 30.27 11.94L30.27 11.87C30.27 10.34 29.26 9.46 27.51 9.46C25.67 9.46 24.56 10.37 24.21 11.6L19.46 11.21C20.17 7.84 23.09 5.71 27.53 5.71C31.67 5.71 35.41 7.57 35.41 11.99L35.41 24.5L30.53 24.5L30.53 21.92L30.38 21.92ZM44.55 31.45L39.4 31.45L39.4 5.95L44.47 5.95L44.47 9.06L44.71 9.06C45.4 7.55 46.88 5.71 49.98 5.71C54.05 5.71 57.49 8.87 57.49 15.25C57.49 21.45 54.19 24.79 49.97 24.79C46.97 24.79 45.42 23.07 44.71 21.52L44.55 21.52L44.55 31.45ZM48.34 9.8C45.84 9.8 44.44 11.91 44.44 15.22C44.44 18.53 45.86 20.7 48.34 20.7C50.87 20.7 52.24 18.46 52.24 15.22C52.24 12.01 50.89 9.8 48.34 9.8ZM23.72 19.15C23.72 20.56 24.85 21.3 26.44 21.3C28.7 21.3 30.3 19.81 30.3 17.86L30.3 15.9C29.68 16.31 27.85 16.58 26.73 16.73C24.92 16.98 23.72 17.7 23.72 19.15Z" fill="#000000" fill-opacity="1.000000" fill-rule="evenodd"/>
	<path id="Japstore." d="M86.38 5.95L89.88 5.95L89.88 9.81L86.38 9.81L86.38 18.79C86.38 20.22 87.1 20.61 88.13 20.61C88.61 20.61 89.15 20.49 89.4 20.44L90.21 24.26C89.69 24.44 88.75 24.7 87.42 24.75C83.69 24.9 81.22 23.11 81.24 19.47L81.24 9.81L78.7 9.81L78.7 5.95L81.24 5.95L81.24 1.51L86.38 1.51L86.38 5.95ZM119.03 24.5L113.89 24.5L113.89 5.95L118.88 5.95L118.88 9.19L119.07 9.19C119.75 6.89 121.45 5.69 123.52 5.69C124.05 5.69 124.69 5.76 125.14 5.87L125.14 10.43C124.66 10.28 123.68 10.15 122.97 10.15C120.7 10.15 119.03 11.72 119.03 14L119.03 24.5ZM68.44 5.71C73.12 5.71 75.88 7.82 76.34 11.24L71.63 11.53C71.37 10.33 70.31 9.35 68.53 9.35C66.93 9.35 65.68 10.08 65.69 11.19C65.68 12.09 66.32 12.67 68.04 13.05L71.4 13.73C75 14.46 76.75 16.07 76.76 18.75C76.75 22.4 73.31 24.86 68.5 24.86C63.59 24.86 60.57 22.67 60.08 19.12L65.15 18.86C65.46 20.37 66.68 21.15 68.52 21.15C70.31 21.15 71.51 20.37 71.53 19.27C71.51 18.34 70.78 17.75 69.16 17.42L65.94 16.78C62.32 16.05 60.57 14.26 60.58 11.48C60.57 7.9 63.7 5.71 68.44 5.71ZM110.53 15.3C110.53 21.01 107.03 24.86 101.41 24.86C95.78 24.86 92.28 21.01 92.28 15.3C92.28 9.55 95.78 5.71 101.41 5.71C107.03 5.71 110.53 9.55 110.53 15.3ZM143.77 19.18C143.05 22.63 139.95 24.86 135.36 24.86C129.65 24.86 126.17 21.18 126.17 15.31C126.17 9.59 129.7 5.71 135.17 5.71C140.06 5.71 143.88 8.82 143.88 15.12L143.88 16.53L131.25 16.53L131.25 16.55C131.25 19.32 132.88 21.02 135.46 21.02C137.17 21.02 138.49 20.28 139.02 18.87L143.77 19.18ZM135.25 9.55C132.97 9.55 131.36 11.24 131.25 13.35L139.04 13.35C139.03 11.14 137.48 9.55 135.25 9.55ZM97.51 15.26C97.51 18.49 98.83 20.88 101.43 20.88C103.98 20.88 105.31 18.49 105.31 15.26C105.31 12.02 103.98 9.63 101.43 9.63C98.83 9.63 97.51 12.02 97.51 15.26ZM153.14 21.91C153.13 23.52 151.79 24.81 150.24 24.81C148.64 24.81 147.33 23.52 147.34 21.91C147.33 20.33 148.64 19.04 150.24 19.04C151.79 19.04 153.13 20.33 153.14 21.91Z" fill="#00147C" fill-opacity="1.000000" fill-rule="evenodd"/>
</svg>