<svg width="11520.000000" height="485.000000" viewBox="0 0 11520 485" fill="none" xmlns="http://www.w3.org/2000/svg" xmlns:xlink="http://www.w3.org/1999/xlink">
  <defs/>
  <path id="Vector" d="M0 -0.15L80 35.78C160 71.28 320 143.8 480 134.46C640 125.12 800 36.11 960 26.77C1120 17.43 1280 89.96 1440 98.53C1600 107.54 1760 53.69 1920 35.78C2080 17.43 2240 36.11 2400 98.53C2560 161.38 2720 269.07 2880 296C3040 322.92 3200 269.07 3360 251.16C3520 232.81 3680 251.49 3840 242.15C4000 232.81 4160 197.65 4320 179.29C4480 161.38 4640 161.38 4800 206.22C4960 251.49 5120 340.5 5280 376.76C5440 413.03 5600 394.34 5760 331.93C5920 269.07 6080 161.38 6240 125.45C6400 89.96 6560 125.12 6720 152.37C6880 178.97 7040 197.65 7200 179.29C7360 161.38 7520 107.54 7680 134.46C7840 161.38 8000 269.07 8160 305.01C8320 340.5 8480 305.34 8640 278.08C8800 251.49 8960 232.81 9120 215.23C9280 197.65 9440 178.97 9600 215.23C9760 251.49 9920 340.5 10080 367.75C10240 394.34 10400 359.18 10560 340.83C10720 322.92 10880 322.92 11040 331.93C11200 340.5 11360 359.18 11440 367.75L11520 376.76L11520 484.45L11440 484.45C11360 484.45 11200 484.45 11040 484.45C10880 484.45 10720 484.45 10560 484.45C10400 484.45 10240 484.45 10080 484.45C9920 484.45 9760 484.45 9600 484.45C9440 484.45 9280 484.45 9120 484.45C8960 484.45 8800 484.45 8640 484.45C8480 484.45 8320 484.45 8160 484.45C8000 484.45 7840 484.45 7680 484.45C7520 484.45 7360 484.45 7200 484.45C7040 484.45 6880 484.45 6720 484.45C6560 484.45 6400 484.45 6240 484.45C6080 484.45 5920 484.45 5760 484.45C5600 484.45 5440 484.45 5280 484.45C5120 484.45 4960 484.45 4800 484.45C4640 484.45 4480 484.45 4320 484.45C4160 484.45 4000 484.45 3840 484.45C3680 484.45 3520 484.45 3360 484.45C3200 484.45 3040 484.45 2880 484.45C2720 484.45 2560 484.45 2400 484.45C2240 484.45 2080 484.45 1920 484.45C1760 484.45 1600 484.45 1440 484.45C1280 484.45 1120 484.45 960 484.45C800 484.45 640 484.45 480 484.45C320 484.45 160 484.45 80 484.45L0 484.45L0 -0.15Z" fill="#00147C" fill-opacity="1.000000" fill-rule="nonzero"/>
</svg>