<svg width="174" height="26" viewBox="0 0 174 26" fill="none" xmlns="http://www.w3.org/2000/svg">
  <path d="M10.942 1.7C13.118 1.7 14.7387 2.21 15.804 3.23C16.8693 4.25 17.402 5.75733 17.402 7.752C17.402 8.81733 17.1413 9.758 16.62 10.574C16.0987 11.3673 15.328 11.9907 14.308 12.444C13.288 12.8747 12.03 13.09 10.534 13.09L10.67 11.56C11.3727 11.56 12.1773 11.662 13.084 11.866C13.9907 12.0473 14.8633 12.3873 15.702 12.886C16.5633 13.362 17.266 14.042 17.81 14.926C18.3767 15.7873 18.66 16.898 18.66 18.258C18.66 19.754 18.4107 20.978 17.912 21.93C17.436 22.882 16.8013 23.6187 16.008 24.14C15.2147 24.6613 14.3647 25.024 13.458 25.228C12.5513 25.4093 11.6787 25.5 10.84 25.5H2.374C1.78467 25.5 1.286 25.3073 0.878 24.922C0.492667 24.514 0.3 24.0153 0.3 23.426V3.774C0.3 3.18467 0.492667 2.69733 0.878 2.312C1.286 1.904 1.78467 1.7 2.374 1.7H10.942ZM10.33 5.712H4.278L4.72 5.168V11.322L4.312 11.016H10.432C11.0893 11.016 11.6787 10.8007 12.2 10.37C12.7213 9.93933 12.982 9.316 12.982 8.5C12.982 7.52533 12.7327 6.82267 12.234 6.392C11.758 5.93867 11.1233 5.712 10.33 5.712ZM10.602 15.028H4.414L4.72 14.756V21.93L4.38 21.59H10.84C11.8827 21.59 12.71 21.318 13.322 20.774C13.934 20.2073 14.24 19.3687 14.24 18.258C14.24 17.238 14.036 16.5013 13.628 16.048C13.22 15.5947 12.7327 15.3113 12.166 15.198C11.5993 15.0847 11.078 15.028 10.602 15.028ZM39.8521 16.422C39.8521 18.2807 39.4328 19.924 38.5941 21.352C37.7781 22.7573 36.6674 23.8567 35.2621 24.65C33.8794 25.4433 32.3268 25.84 30.6041 25.84C28.8814 25.84 27.3174 25.4433 25.9121 24.65C24.5294 23.8567 23.4188 22.7573 22.5801 21.352C21.7641 19.924 21.3561 18.2807 21.3561 16.422C21.3561 14.5633 21.7641 12.9313 22.5801 11.526C23.4188 10.098 24.5294 8.98733 25.9121 8.194C27.3174 7.378 28.8814 6.97 30.6041 6.97C32.3268 6.97 33.8794 7.378 35.2621 8.194C36.6674 8.98733 37.7781 10.098 38.5941 11.526C39.4328 12.9313 39.8521 14.5633 39.8521 16.422ZM35.7721 16.422C35.7721 15.266 35.5341 14.2687 35.0581 13.43C34.6048 12.5687 33.9814 11.9 33.1881 11.424C32.4174 10.948 31.5561 10.71 30.6041 10.71C29.6521 10.71 28.7794 10.948 27.9861 11.424C27.2154 11.9 26.5921 12.5687 26.1161 13.43C25.6628 14.2687 25.4361 15.266 25.4361 16.422C25.4361 17.5553 25.6628 18.5527 26.1161 19.414C26.5921 20.2527 27.2154 20.91 27.9861 21.386C28.7794 21.862 29.6521 22.1 30.6041 22.1C31.5561 22.1 32.4174 21.862 33.1881 21.386C33.9814 20.91 34.6048 20.2527 35.0581 19.414C35.5341 18.5527 35.7721 17.5553 35.7721 16.422ZM61.0689 16.422C61.0689 18.2807 60.6496 19.924 59.8109 21.352C58.9949 22.7573 57.8842 23.8567 56.4789 24.65C55.0962 25.4433 53.5436 25.84 51.8209 25.84C50.0982 25.84 48.5342 25.4433 47.1289 24.65C45.7462 23.8567 44.6356 22.7573 43.7969 21.352C42.9809 19.924 42.5729 18.2807 42.5729 16.422C42.5729 14.5633 42.9809 12.9313 43.7969 11.526C44.6356 10.098 45.7462 8.98733 47.1289 8.194C48.5342 7.378 50.0982 6.97 51.8209 6.97C53.5436 6.97 55.0962 7.378 56.4789 8.194C57.8842 8.98733 58.9949 10.098 59.8109 11.526C60.6496 12.9313 61.0689 14.5633 61.0689 16.422ZM56.9889 16.422C56.9889 15.266 56.7509 14.2687 56.2749 13.43C55.8216 12.5687 55.1982 11.9 54.4049 11.424C53.6342 10.948 52.7729 10.71 51.8209 10.71C50.8689 10.71 49.9962 10.948 49.2029 11.424C48.4322 11.9 47.8089 12.5687 47.3329 13.43C46.8796 14.2687 46.6529 15.266 46.6529 16.422C46.6529 17.5553 46.8796 18.5527 47.3329 19.414C47.8089 20.2527 48.4322 20.91 49.2029 21.386C49.9962 21.862 50.8689 22.1 51.8209 22.1C52.7729 22.1 53.6342 21.862 54.4049 21.386C55.1982 20.91 55.8216 20.2527 56.2749 19.414C56.7509 18.5527 56.9889 17.5553 56.9889 16.422ZM67.0197 25.5C66.4304 25.5 65.943 25.3073 65.5577 24.922C65.1724 24.514 64.9797 24.0153 64.9797 23.426V2.414C64.9797 1.82467 65.1724 1.33733 65.5577 0.951998C65.943 0.543999 66.4304 0.34 67.0197 0.34C67.609 0.34 68.0964 0.543999 68.4817 0.951998C68.867 1.33733 69.0597 1.82467 69.0597 2.414V23.426C69.0597 24.0153 68.867 24.514 68.4817 24.922C68.0964 25.3073 67.609 25.5 67.0197 25.5ZM77.8317 7.31C78.353 7.31 78.8064 7.52533 79.1917 7.956C79.577 8.38667 79.7697 8.806 79.7697 9.214C79.7697 9.758 79.4977 10.268 78.9537 10.744L68.7197 20.162L68.5497 15.47L76.3357 7.956C76.7664 7.52533 77.265 7.31 77.8317 7.31ZM78.3417 25.466C77.7524 25.466 77.2537 25.2393 76.8457 24.786L70.5557 18.122L73.6497 15.266L79.7697 21.93C80.2004 22.3833 80.4157 22.8933 80.4157 23.46C80.4157 24.0493 80.1777 24.5367 79.7017 24.922C79.2484 25.2847 78.795 25.466 78.3417 25.466Z" fill="black"/>
  <path d="M82.7771 22.678C82.5504 22.3607 82.4484 21.9527 82.4711 21.454C82.4938 20.9553 82.7884 20.5247 83.3551 20.162C83.7178 19.9353 84.1031 19.8447 84.5111 19.89C84.9191 19.9127 85.3158 20.1167 85.7011 20.502C86.3584 21.1593 87.0498 21.6693 87.7751 22.032C88.5004 22.3947 89.4071 22.576 90.4951 22.576C90.8351 22.5533 91.2091 22.508 91.6171 22.44C92.0251 22.3493 92.3764 22.168 92.6711 21.896C92.9884 21.6013 93.1471 21.1593 93.1471 20.57C93.1471 20.0713 92.9771 19.6747 92.6371 19.38C92.2971 19.0853 91.8438 18.836 91.2771 18.632C90.7331 18.428 90.1211 18.2353 89.4411 18.054C88.7384 17.85 88.0131 17.6233 87.2651 17.374C86.5398 17.1247 85.8711 16.8073 85.2591 16.422C84.6471 16.014 84.1484 15.4813 83.7631 14.824C83.3778 14.1667 83.1851 13.3393 83.1851 12.342C83.1851 11.2087 83.5024 10.2453 84.1371 9.452C84.7718 8.65867 85.5878 8.04667 86.5851 7.616C87.6051 7.18533 88.6704 6.97 89.7811 6.97C90.4838 6.97 91.2204 7.06067 91.9911 7.242C92.7618 7.40067 93.4984 7.67267 94.2011 8.058C94.9038 8.42067 95.4931 8.908 95.9691 9.52C96.2184 9.86 96.3658 10.268 96.4111 10.744C96.4564 11.22 96.2411 11.6507 95.7651 12.036C95.4251 12.308 95.0284 12.4327 94.5751 12.41C94.1218 12.3647 93.7478 12.206 93.4531 11.934C93.0678 11.4353 92.5464 11.0387 91.8891 10.744C91.2544 10.4493 90.5178 10.302 89.6791 10.302C89.3391 10.302 88.9651 10.3473 88.5571 10.438C88.1718 10.506 87.8318 10.676 87.5371 10.948C87.2424 11.1973 87.0951 11.6053 87.0951 12.172C87.0951 12.6933 87.2651 13.1127 87.6051 13.43C87.9451 13.7247 88.3984 13.974 88.9651 14.178C89.5544 14.3593 90.1778 14.5407 90.8351 14.722C91.5151 14.9033 92.2064 15.1187 92.9091 15.368C93.6118 15.6173 94.2578 15.946 94.8471 16.354C95.4364 16.762 95.9124 17.2947 96.2751 17.952C96.6378 18.5867 96.8191 19.4027 96.8191 20.4C96.8191 21.556 96.4791 22.542 95.7991 23.358C95.1191 24.174 94.2691 24.7973 93.2491 25.228C92.2291 25.636 91.1864 25.84 90.1211 25.84C88.7838 25.84 87.4464 25.6133 86.1091 25.16C84.7718 24.684 83.6611 23.8567 82.7771 22.678ZM100.437 7.65H108.495C109.039 7.65 109.493 7.83133 109.855 8.194C110.218 8.55667 110.399 9.01 110.399 9.554C110.399 10.0753 110.218 10.5173 109.855 10.88C109.493 11.22 109.039 11.39 108.495 11.39H100.437C99.8934 11.39 99.4401 11.2087 99.0774 10.846C98.7148 10.4833 98.5334 10.03 98.5334 9.486C98.5334 8.96467 98.7148 8.534 99.0774 8.194C99.4401 7.83133 99.8934 7.65 100.437 7.65ZM104.075 3.4C104.665 3.4 105.141 3.604 105.503 4.012C105.889 4.39733 106.081 4.88467 106.081 5.474V20.604C106.081 20.9213 106.138 21.182 106.251 21.386C106.387 21.59 106.557 21.7373 106.761 21.828C106.988 21.9187 107.226 21.964 107.475 21.964C107.747 21.964 107.997 21.9187 108.223 21.828C108.45 21.7147 108.711 21.658 109.005 21.658C109.323 21.658 109.606 21.8053 109.855 22.1C110.127 22.3947 110.263 22.8027 110.263 23.324C110.263 23.9587 109.912 24.48 109.209 24.888C108.529 25.296 107.793 25.5 106.999 25.5C106.523 25.5 105.991 25.466 105.401 25.398C104.835 25.3073 104.291 25.1147 103.769 24.82C103.271 24.5027 102.851 24.0267 102.511 23.392C102.171 22.7573 102.001 21.8847 102.001 20.774V5.474C102.001 4.88467 102.194 4.39733 102.579 4.012C102.987 3.604 103.486 3.4 104.075 3.4ZM131.626 16.422C131.626 18.2807 131.206 19.924 130.368 21.352C129.552 22.7573 128.441 23.8567 127.036 24.65C125.653 25.4433 124.1 25.84 122.378 25.84C120.655 25.84 119.091 25.4433 117.686 24.65C116.303 23.8567 115.192 22.7573 114.354 21.352C113.538 19.924 113.13 18.2807 113.13 16.422C113.13 14.5633 113.538 12.9313 114.354 11.526C115.192 10.098 116.303 8.98733 117.686 8.194C119.091 7.378 120.655 6.97 122.378 6.97C124.1 6.97 125.653 7.378 127.036 8.194C128.441 8.98733 129.552 10.098 130.368 11.526C131.206 12.9313 131.626 14.5633 131.626 16.422ZM127.546 16.422C127.546 15.266 127.308 14.2687 126.832 13.43C126.378 12.5687 125.755 11.9 124.962 11.424C124.191 10.948 123.33 10.71 122.378 10.71C121.426 10.71 120.553 10.948 119.76 11.424C118.989 11.9 118.366 12.5687 117.89 13.43C117.436 14.2687 117.21 15.266 117.21 16.422C117.21 17.5553 117.436 18.5527 117.89 19.414C118.366 20.2527 118.989 20.91 119.76 21.386C120.553 21.862 121.426 22.1 122.378 22.1C123.33 22.1 124.191 21.862 124.962 21.386C125.755 20.91 126.378 20.2527 126.832 19.414C127.308 18.5527 127.546 17.5553 127.546 16.422ZM137.236 25.5C136.647 25.5 136.16 25.3073 135.774 24.922C135.389 24.514 135.196 24.0153 135.196 23.426V9.384C135.196 8.79467 135.389 8.30733 135.774 7.922C136.16 7.514 136.647 7.31 137.236 7.31C137.826 7.31 138.313 7.514 138.698 7.922C139.084 8.30733 139.276 8.79467 139.276 9.384V12.58L139.038 10.302C139.288 9.758 139.605 9.282 139.99 8.874C140.398 8.44333 140.852 8.092 141.35 7.82C141.849 7.52533 142.382 7.31 142.948 7.174C143.515 7.038 144.082 6.97 144.648 6.97C145.328 6.97 145.895 7.16267 146.348 7.548C146.824 7.93333 147.062 8.38667 147.062 8.908C147.062 9.656 146.87 10.2 146.484 10.54C146.099 10.8573 145.68 11.016 145.226 11.016C144.796 11.016 144.399 10.9367 144.036 10.778C143.696 10.6193 143.3 10.54 142.846 10.54C142.438 10.54 142.019 10.642 141.588 10.846C141.18 11.0273 140.795 11.322 140.432 11.73C140.092 12.138 139.809 12.648 139.582 13.26C139.378 13.8493 139.276 14.552 139.276 15.368V23.426C139.276 24.0153 139.084 24.514 138.698 24.922C138.313 25.3073 137.826 25.5 137.236 25.5ZM157.743 25.84C155.816 25.84 154.139 25.4433 152.711 24.65C151.306 23.834 150.218 22.7347 149.447 21.352C148.699 19.9693 148.325 18.4053 148.325 16.66C148.325 14.62 148.733 12.886 149.549 11.458C150.388 10.0073 151.476 8.89667 152.813 8.126C154.15 7.35533 155.567 6.97 157.063 6.97C158.219 6.97 159.307 7.208 160.327 7.684C161.37 8.16 162.288 8.81733 163.081 9.656C163.874 10.472 164.498 11.424 164.951 12.512C165.427 13.6 165.665 14.756 165.665 15.98C165.642 16.524 165.427 16.966 165.019 17.306C164.611 17.646 164.135 17.816 163.591 17.816H150.603L149.583 14.416H162.061L161.313 15.096V14.178C161.268 13.5207 161.03 12.9313 160.599 12.41C160.191 11.8887 159.67 11.4807 159.035 11.186C158.423 10.8687 157.766 10.71 157.063 10.71C156.383 10.71 155.748 10.8007 155.159 10.982C154.57 11.1633 154.06 11.4693 153.629 11.9C153.198 12.3307 152.858 12.9087 152.609 13.634C152.36 14.3593 152.235 15.2773 152.235 16.388C152.235 17.612 152.484 18.6547 152.983 19.516C153.504 20.3547 154.162 21.0007 154.955 21.454C155.771 21.8847 156.632 22.1 157.539 22.1C158.378 22.1 159.046 22.032 159.545 21.896C160.044 21.76 160.44 21.6013 160.735 21.42C161.052 21.216 161.336 21.046 161.585 20.91C161.993 20.706 162.378 20.604 162.741 20.604C163.24 20.604 163.648 20.774 163.965 21.114C164.305 21.454 164.475 21.8507 164.475 22.304C164.475 22.916 164.158 23.4713 163.523 23.97C162.934 24.4687 162.106 24.9107 161.041 25.296C159.976 25.6587 158.876 25.84 157.743 25.84ZM171.032 25.466C170.374 25.466 169.864 25.296 169.502 24.956C169.162 24.5933 168.992 24.0833 168.992 23.426V22.848C168.992 22.1907 169.162 21.692 169.502 21.352C169.864 20.9893 170.374 20.808 171.032 20.808H171.474C172.131 20.808 172.63 20.9893 172.97 21.352C173.332 21.692 173.514 22.1907 173.514 22.848V23.426C173.514 24.0833 173.332 24.5933 172.97 24.956C172.63 25.296 172.131 25.466 171.474 25.466H171.032Z" fill="#00147C"/>
</svg>