<svg width="184.000000" height="33.000000" viewBox="0 0 184 33" fill="none" xmlns="http://www.w3.org/2000/svg" xmlns:xlink="http://www.w3.org/1999/xlink">
  <defs>
    <filter id="filter_2111_61_dd" x="-0.350098" y="-0.228027" width="184.112396" height="33.093262" filterUnits="userSpaceOnUse" color-interpolation-filters="sRGB">
      <feFlood flood-opacity="0" result="BackgroundImageFix"/>
      <feColorMatrix in="SourceAlpha" type="matrix" values="0 0 0 0 0 0 0 0 0 0 0 0 0 0 0 0 0 0 127 0" result="hardAlpha"/>
      <feOffset dx="0" dy="4"/>
      <feGaussianBlur stdDeviation="1.33333"/>
      <feComposite in2="hardAlpha" operator="out" k2="-1" k3="1"/>
      <feColorMatrix type="matrix" values="0 0 0 0 0 0 0 0 0 0 0 0 0 0 0 0 0 0 0.25 0"/>
      <feBlend mode="normal" in2="BackgroundImageFix" result="effect_dropShadow_1"/>
      <feBlend mode="normal" in="SourceGraphic" in2="effect_dropShadow_1" result="shape"/>
    </filter>
  </defs>
  <g filter="url(#filter_2111_61_dd)">
    <path id="Bookstore." d="M113 5.95L116.49 5.95L116.49 9.81L113 9.81L113 18.79C113 20.22 113.71 20.61 114.74 20.61C115.22 20.61 115.76 20.49 116.02 20.44L116.82 24.26C116.31 24.44 115.36 24.7 114.03 24.75C110.31 24.9 107.83 23.11 107.86 19.47L107.86 9.81L105.32 9.81L105.32 5.95L107.86 5.95L107.86 1.51L113 1.51L113 5.95ZM145.65 24.5L140.5 24.5L140.5 5.95L145.49 5.95L145.49 9.19L145.68 9.19C146.36 6.89 148.06 5.69 150.14 5.69C150.66 5.69 151.3 5.76 151.75 5.87L151.75 10.43C151.27 10.28 150.29 10.15 149.58 10.15C147.31 10.15 145.65 11.72 145.65 14L145.65 24.5ZM95.06 5.71C99.74 5.71 102.49 7.82 102.95 11.24L98.24 11.53C97.99 10.33 96.92 9.35 95.14 9.35C93.55 9.35 92.29 10.08 92.3 11.19C92.29 12.09 92.93 12.67 94.66 13.05L98.01 13.73C101.61 14.46 103.37 16.07 103.37 18.75C103.37 22.4 99.92 24.86 95.11 24.86C90.2 24.86 87.19 22.67 86.7 19.12L91.76 18.86C92.08 20.37 93.3 21.15 95.13 21.15C96.92 21.15 98.12 20.37 98.14 19.27C98.12 18.34 97.39 17.75 95.77 17.42L92.56 16.78C88.93 16.05 87.19 14.26 87.2 11.48C87.19 7.9 90.31 5.71 95.06 5.71ZM137.14 15.3C137.14 21.01 133.65 24.86 128.02 24.86C122.39 24.86 118.89 21.01 118.89 15.3C118.89 9.55 122.39 5.71 128.02 5.71C133.65 5.71 137.14 9.55 137.14 15.3ZM170.39 19.18C169.66 22.63 166.57 24.86 161.98 24.86C156.27 24.86 152.78 21.18 152.78 15.31C152.78 9.59 156.32 5.71 161.78 5.71C166.68 5.71 170.49 8.82 170.49 15.12L170.49 16.53L157.86 16.53L157.86 16.55C157.86 19.32 159.5 21.02 162.07 21.02C163.78 21.02 165.11 20.28 165.63 18.87L170.39 19.18ZM161.86 9.55C159.58 9.55 157.98 11.24 157.86 13.35L165.65 13.35C165.64 11.14 164.09 9.55 161.86 9.55ZM124.12 15.26C124.12 18.49 125.45 20.88 128.04 20.88C130.59 20.88 131.92 18.49 131.92 15.26C131.92 12.02 130.59 9.63 128.04 9.63C125.45 9.63 124.12 12.02 124.12 15.26Z" fill="#FF008A" fill-opacity="1.000000" fill-rule="evenodd"/>
    <path id="Bookstore." d="M179.76 21.91C179.74 23.52 178.4 24.81 176.85 24.81C175.26 24.81 173.95 23.52 173.96 21.91C173.95 20.33 175.26 19.04 176.85 19.04C178.4 19.04 179.74 20.33 179.76 21.91Z" fill="#FF008A" fill-opacity="1.000000" fill-rule="evenodd"/>
    <path id="Bookstore." d="M14.21 24.5L3.64 24.5L3.64 -0.23L13.55 -0.23C19 -0.23 21.76 2.4 21.76 6.11C21.76 9.01 19.86 10.84 17.29 11.42L17.29 11.66C20.1 11.79 22.72 14 22.72 17.66C22.72 21.6 19.77 24.5 14.21 24.5ZM72.89 24.5L67.74 24.5L67.74 -0.23L72.89 -0.23L72.89 12.99L73.16 12.99L79.11 5.95L85.01 5.95L78.13 13.98L85.36 24.5L79.34 24.5L74.27 17.02L72.89 18.6L72.89 24.5ZM8.87 3.99L8.87 10.12L12.75 10.12C14.88 10.12 16.48 8.93 16.48 6.97C16.48 5.19 15.17 3.99 12.84 3.99L8.87 3.99ZM43.52 15.3C43.52 21.01 40.03 24.86 34.4 24.86C28.77 24.86 25.27 21.01 25.27 15.3C25.27 9.55 28.77 5.71 34.4 5.71C40.03 5.71 43.52 9.55 43.52 15.3ZM64.38 15.3C64.38 21.01 60.89 24.86 55.26 24.86C49.63 24.86 46.13 21.01 46.13 15.3C46.13 9.55 49.63 5.71 55.26 5.71C60.89 5.71 64.38 9.55 64.38 15.3ZM30.5 15.26C30.5 18.49 31.83 20.88 34.42 20.88C36.97 20.88 38.3 18.49 38.3 15.26C38.3 12.02 36.97 9.63 34.42 9.63C31.83 9.63 30.5 12.02 30.5 15.26ZM51.36 15.26C51.36 18.49 52.69 20.88 55.29 20.88C57.84 20.88 59.16 18.49 59.16 15.26C59.16 12.02 57.84 9.63 55.29 9.63C52.69 9.63 51.36 12.02 51.36 15.26ZM8.87 13.65L8.87 20.22L13.13 20.22C16.05 20.22 17.32 19 17.32 17.14C17.32 15.1 15.76 13.65 13.26 13.65L8.87 13.65Z" fill="#D6BDB3" fill-opacity="1.000000" fill-rule="evenodd"/>
  </g>
</svg>