<svg width="43.000000" height="41.000000" viewBox="0 0 43 41" fill="none" xmlns="http://www.w3.org/2000/svg" xmlns:xlink="http://www.w3.org/1999/xlink">
  <defs>
    <clipPath id="clip2111_389">
      <rect id="trash 1" width="43.000000" height="41.000000" fill="white" fill-opacity="0"/>
    </clipPath>
  </defs>
  <rect id="trash 1" width="43.000000" height="41.000000" fill="#FFFFFF" fill-opacity="0"/>
  <g clip-path="url(#clip2111_389)">
    <path id="trash" d="M34.93 10.25L8.06 10.25C7.32 10.25 6.71 9.67 6.71 8.96C6.71 8.26 7.32 7.68 8.06 7.68L34.93 7.68C35.67 7.68 36.28 8.26 36.28 8.96C36.28 9.67 35.67 10.25 34.93 10.25ZM33.59 35.87C33.59 37.28 32.38 38.43 30.9 38.43L12.09 38.43C10.61 38.43 9.4 37.28 9.4 35.87L9.4 12.81L33.59 12.81L33.59 35.87ZM17.46 3.84C17.46 3.13 18.07 2.56 18.81 2.56L24.18 2.56C24.92 2.56 25.53 3.13 25.53 3.84L25.53 5.12L17.46 5.12L17.46 3.84ZM36.28 5.12L28.21 5.12L28.21 2.56C28.21 1.14 27.01 0 25.53 0L17.46 0C15.98 0 14.78 1.14 14.78 2.56L14.78 5.12L6.71 5.12C5.23 5.12 4.03 6.27 4.03 7.68L4.03 10.25C4.03 11.66 5.23 12.81 6.71 12.81L6.71 35.87C6.71 38.7 9.12 41 12.09 41L30.9 41C33.87 41 36.28 38.7 36.28 35.87L36.28 12.81C37.76 12.81 38.96 11.66 38.96 10.25L38.96 7.68C38.96 6.27 37.76 5.12 36.28 5.12ZM21.5 35.87C22.24 35.87 22.84 35.3 22.84 34.59L22.84 19.21C22.84 18.51 22.24 17.93 21.5 17.93C20.75 17.93 20.15 18.51 20.15 19.21L20.15 34.59C20.15 35.3 20.75 35.87 21.5 35.87ZM14.78 35.87C15.52 35.87 16.12 35.3 16.12 34.59L16.12 19.21C16.12 18.51 15.52 17.93 14.78 17.93C14.03 17.93 13.43 18.51 13.43 19.21L13.43 34.59C13.43 35.3 14.03 35.87 14.78 35.87ZM28.21 35.87C28.96 35.87 29.56 35.3 29.56 34.59L29.56 19.21C29.56 18.51 28.96 17.93 28.21 17.93C27.47 17.93 26.87 18.51 26.87 19.21L26.87 34.59C26.87 35.3 27.47 35.87 28.21 35.87Z" fill="#000000" fill-opacity="1.000000" fill-rule="evenodd"/>
  </g>
</svg>